# xmcd
#
# Track frame offsets:
#	150
#	9906
#	21136
#	29054
#	38735
#	52875
#	65410
#	78632
#	90782
#
# Disc length: 1313 seconds
#
# Revision: 1
# Processed by: cddbd v1.5.2PL0 Copyright (c) Steve Scherf et al.
# Submitted via: audiograbber 1.83.01
#
DISCID=5f051f09
DTITLE=aman amun - waxing
DYEAR=2008
DGENRE=
TTITLE0=The Balloons
TTITLE1=Surviving the Stretch
TTITLE2=Scapegoating
TTITLE3=Exploring the Obvious
TTITLE4=A Matter of Fact
TTITLE5=Cardio
TTITLE6=Vacuoles
TTITLE7=Opportunity Cost
TTITLE8=Moods
EXTD=
EXTT0=
EXTT1=
EXTT2=
EXTT3=
EXTT4=
EXTT5=
EXTT6=
EXTT7=
EXTT8=
PLAYORDER=
